<?xml version="1.0" encoding="UTF-8"?>
<svg viewBox="0 0 800 520" xmlns="http://www.w3.org/2000/svg" style="max-width:800px">
  <defs>
    <filter id="shadow8">
      <feDropShadow dx="1" dy="2" stdDeviation="3" flood-opacity="0.1"/>
    </filter>
  </defs>
  <rect width="800" height="520" rx="16" fill="#f8f9fe"/>
  <text x="400" y="35" text-anchor="middle" font-size="20" font-weight="bold" fill="#1a1a2e">90天落地路线图</text>

  <!-- Timeline bar -->
  <rect x="50" y="55" width="700" height="4" rx="2" fill="#e0e0e0"/>
  <rect x="50" y="55" width="230" height="4" rx="2" fill="#667eea"/>
  <rect x="280" y="55" width="230" height="4" rx="2" fill="#764ba2"/>
  <rect x="510" y="55" width="240" height="4" rx="2" fill="#e94560"/>

  <!-- Phase markers -->
  <circle cx="50" cy="57" r="8" fill="#667eea"/>
  <circle cx="280" cy="57" r="8" fill="#764ba2"/>
  <circle cx="510" cy="57" r="8" fill="#e94560"/>
  <circle cx="750" cy="57" r="8" fill="#4CAF50"/>

  <!-- Phase labels -->
  <text x="165" y="48" text-anchor="middle" font-size="13" font-weight="bold" fill="#667eea">第 1-30 天</text>
  <text x="395" y="48" text-anchor="middle" font-size="13" font-weight="bold" fill="#764ba2">第 31-60 天</text>
  <text x="630" y="48" text-anchor="middle" font-size="13" font-weight="bold" fill="#e94560">第 61-90 天</text>

  <!-- Phase 1 -->
  <rect x="30" y="75" width="240" height="420" rx="12" fill="white" filter="url(#shadow8)"/>
  <rect x="30" y="75" width="240" height="35" rx="12" fill="#667eea"/>
  <rect x="30" y="97" width="240" height="13" fill="#667eea"/>
  <text x="150" y="97" text-anchor="middle" font-size="13" font-weight="bold" fill="white">启动 &amp; 试点</text>

  <text x="50" y="135" font-size="12" font-weight="bold" fill="#333">环境搭建</text>
  <text x="50" y="155" font-size="11" fill="#666">□ 统一采购工具许可</text>
  <text x="50" y="173" font-size="11" fill="#666">□ 配置安全合规策略</text>
  <text x="50" y="191" font-size="11" fill="#666">□ 建立使用规范文档</text>

  <text x="50" y="220" font-size="12" font-weight="bold" fill="#333">培训启动</text>
  <text x="50" y="240" font-size="11" fill="#666">□ 基础工具培训 (2小时)</text>
  <text x="50" y="258" font-size="11" fill="#666">□ Prompt 工程工作坊</text>
  <text x="50" y="276" font-size="11" fill="#666">□ 安全意识培训</text>

  <text x="50" y="305" font-size="12" font-weight="bold" fill="#333">试点项目</text>
  <text x="50" y="325" font-size="11" fill="#666">□ 选择 2-3 个低风险项目</text>
  <text x="50" y="343" font-size="11" fill="#666">□ 组建种子团队 (3-5人)</text>
  <text x="50" y="361" font-size="11" fill="#666">□ 每日分享经验</text>

  <text x="50" y="395" font-size="12" font-weight="bold" fill="#333">KPI</text>
  <rect x="50" y="405" width="200" height="25" rx="5" fill="#f0f4ff"/>
  <text x="150" y="422" text-anchor="middle" font-size="11" fill="#667eea" font-weight="bold">100% 试点成员每日使用 AI</text>
  <rect x="50" y="438" width="200" height="25" rx="5" fill="#f0f4ff"/>
  <text x="150" y="455" text-anchor="middle" font-size="11" fill="#667eea" font-weight="bold">收集 10+ 成功用例</text>

  <!-- Phase 2 -->
  <rect x="285" y="75" width="230" height="420" rx="12" fill="white" filter="url(#shadow8)"/>
  <rect x="285" y="75" width="230" height="35" rx="12" fill="#764ba2"/>
  <rect x="285" y="97" width="230" height="13" fill="#764ba2"/>
  <text x="400" y="97" text-anchor="middle" font-size="13" font-weight="bold" fill="white">扩展 &amp; 深化</text>

  <text x="305" y="135" font-size="12" font-weight="bold" fill="#333">全面推广</text>
  <text x="305" y="155" font-size="11" fill="#666">□ 全部门开放工具权限</text>
  <text x="305" y="173" font-size="11" fill="#666">□ 种子成员带教新成员</text>
  <text x="305" y="191" font-size="11" fill="#666">□ 每周最佳实践分享会</text>

  <text x="305" y="220" font-size="12" font-weight="bold" fill="#333">流程融合</text>
  <text x="305" y="240" font-size="11" fill="#666">□ AI Review 嵌入 CI/CD</text>
  <text x="305" y="258" font-size="11" fill="#666">□ 建立 CLAUDE.md 模板库</text>
  <text x="305" y="276" font-size="11" fill="#666">□ AI 辅助测试常态化</text>

  <text x="305" y="305" font-size="12" font-weight="bold" fill="#333">进阶能力</text>
  <text x="305" y="325" font-size="11" fill="#666">□ 代理模式实战训练</text>
  <text x="305" y="343" font-size="11" fill="#666">□ 并行 Agent 工作流</text>
  <text x="305" y="361" font-size="11" fill="#666">□ 自定义 MCP 工具</text>

  <text x="305" y="395" font-size="12" font-weight="bold" fill="#333">KPI</text>
  <rect x="305" y="405" width="190" height="25" rx="5" fill="#f3e8ff"/>
  <text x="400" y="422" text-anchor="middle" font-size="11" fill="#764ba2" font-weight="bold">80%+ 成员周活跃使用</text>
  <rect x="305" y="438" width="190" height="25" rx="5" fill="#f3e8ff"/>
  <text x="400" y="455" text-anchor="middle" font-size="11" fill="#764ba2" font-weight="bold">PR 周期缩短 30%+</text>

  <!-- Phase 3 -->
  <rect x="530" y="75" width="240" height="420" rx="12" fill="white" filter="url(#shadow8)"/>
  <rect x="530" y="75" width="240" height="35" rx="12" fill="#e94560"/>
  <rect x="530" y="97" width="240" height="13" fill="#e94560"/>
  <text x="650" y="97" text-anchor="middle" font-size="13" font-weight="bold" fill="white">优化 &amp; 固化</text>

  <text x="550" y="135" font-size="12" font-weight="bold" fill="#333">度量驱动</text>
  <text x="550" y="155" font-size="11" fill="#666">□ 建立效能度量仪表盘</text>
  <text x="550" y="173" font-size="11" fill="#666">□ A/B 对比产出数据</text>
  <text x="550" y="191" font-size="11" fill="#666">□ ROI 分析报告</text>

  <text x="550" y="220" font-size="12" font-weight="bold" fill="#333">制度固化</text>
  <text x="550" y="240" font-size="11" fill="#666">□ AI 能力纳入胜任力模型</text>
  <text x="550" y="258" font-size="11" fill="#666">□ 更新团队绩效评估标准</text>
  <text x="550" y="276" font-size="11" fill="#666">□ 编制部门 AI 使用指南</text>

  <text x="550" y="305" font-size="12" font-weight="bold" fill="#333">前沿探索</text>
  <text x="550" y="325" font-size="11" fill="#666">□ 多代理协作模式实验</text>
  <text x="550" y="343" font-size="11" fill="#666">□ AI 代码质量基线建立</text>
  <text x="550" y="361" font-size="11" fill="#666">□ 向其他部门输出经验</text>

  <text x="550" y="395" font-size="12" font-weight="bold" fill="#333">KPI</text>
  <rect x="550" y="405" width="200" height="25" rx="5" fill="#fff0f0"/>
  <text x="650" y="422" text-anchor="middle" font-size="11" fill="#e94560" font-weight="bold">交付效率提升 50%+</text>
  <rect x="550" y="438" width="200" height="25" rx="5" fill="#fff0f0"/>
  <text x="650" y="455" text-anchor="middle" font-size="11" fill="#e94560" font-weight="bold">形成可复制的转型方法论</text>
</svg>
